HIERARCHY
ROOT SimulationBone
{
	OFFSET 0.000000 0.000000 0.000000
	CHANNELS 6 Xposition Yposition Zposition Zrotation Yrotation Xrotation 
	JOINT Hips
	{
		OFFSET 0.000000 0.000000 0.000000
		CHANNELS 6 Xposition Yposition Zposition Zrotation Yrotation Xrotation 
		JOINT RightUpLeg
		{
			OFFSET 0.103457 1.857818 10.548502
			CHANNELS 3 Zrotation Yrotation Xrotation
			JOINT RightLeg
			{
				OFFSET 43.500000 -0.000011 -0.000004
				CHANNELS 3 Zrotation Yrotation Xrotation
				JOINT RightFoot
				{
					OFFSET 42.372192 -0.000004 -0.000008
					CHANNELS 3 Zrotation Yrotation Xrotation
					JOINT RightToe
					{
						OFFSET 17.300014 0.000006 0.000001
						CHANNELS 3 Zrotation Yrotation Xrotation
						End Site
						{
							OFFSET 0.000000 0.000000 0.000000
						}
					}
				}
			}
		}
		JOINT LeftUpLeg
		{
			OFFSET 0.103457 1.857817 -10.548505
			CHANNELS 3 Zrotation Yrotation Xrotation
			JOINT LeftLeg
			{
				OFFSET 43.500046 -0.000004 0.000011
				CHANNELS 3 Zrotation Yrotation Xrotation
				JOINT LeftFoot
				{
					OFFSET 42.372257 0.000000 0.000015
					CHANNELS 3 Zrotation Yrotation Xrotation
					JOINT LeftToe
					{
						OFFSET 17.300003 -0.000000 0.000002
						CHANNELS 3 Zrotation Yrotation Xrotation
						End Site
						{
							OFFSET 0.000000 0.000000 0.000000
						}
					}
				}
			}
		}
		JOINT Spine
		{
			OFFSET 6.901961 -2.603721 -0.000001
			CHANNELS 3 Zrotation Yrotation Xrotation
			JOINT Spine1
			{
				OFFSET 12.588108 0.000002 -0.000001
				CHANNELS 3 Zrotation Yrotation Xrotation
				JOINT Spine2
				{
					OFFSET 12.343199 -0.000020 0.000006
					CHANNELS 3 Zrotation Yrotation Xrotation
					JOINT Neck
					{
						OFFSET 25.832905 0.000017 0.000000
						CHANNELS 3 Zrotation Yrotation Xrotation
						JOINT Head
						{
							OFFSET 11.766604 -0.000006 0.000004
							CHANNELS 3 Zrotation Yrotation Xrotation
							End Site
							{
								OFFSET 0.000000 0.000000 0.000000
							}
						}
					}
					JOINT RightShoulder
					{
						OFFSET 19.745903 -1.480350 6.000100
						CHANNELS 3 Zrotation Yrotation Xrotation
						JOINT RightArm
						{
							OFFSET 11.284130 -0.000016 -0.000016
							CHANNELS 3 Zrotation Yrotation Xrotation
							JOINT RightForeArm
							{
								OFFSET 33.000046 0.000004 0.000031
								CHANNELS 3 Zrotation Yrotation Xrotation
								JOINT RightHand
								{
									OFFSET 25.199999 0.000027 0.000001
									CHANNELS 3 Zrotation Yrotation Xrotation
									End Site
									{
										OFFSET 0.000000 0.000000 0.000000
									}
								}
							}
						}
					}
					JOINT LeftShoulder
					{
						OFFSET 19.746094 -1.480375 -6.000080
						CHANNELS 3 Zrotation Yrotation Xrotation
						JOINT LeftArm
						{
							OFFSET 11.284131 -0.000016 -0.000017
							CHANNELS 3 Zrotation Yrotation Xrotation
							JOINT LeftForeArm
							{
								OFFSET 33.000095 0.000009 0.000020
								CHANNELS 3 Zrotation Yrotation Xrotation
								JOINT LeftHand
								{
									OFFSET 25.199789 0.000132 0.000423
									CHANNELS 3 Zrotation Yrotation Xrotation
									End Site
									{
										OFFSET 0.000000 0.000000 0.000000
									}
								}
							}
						}
					}
				}
			}
		}
	}
}
MOTION
Frames: 5
Frame Time: 0.033333
-47.768882 0.000000 326.803887 0.000000 103.712817 0.000000 2.092822 89.107811 -0.558852 97.561546 -3.007511 177.357981 176.496910 -3.798989 178.249810 -26.319700 -5.216189 -2.825345 82.833993 1.377177 -3.312137 21.454562 0.003109 0.000018 170.263475 11.551194 -178.790611 -50.764213 0.775794 -1.219227 72.598798 3.250845 7.484167 21.454550 -0.003082 -0.000002 8.097131 -1.313616 0.125944 6.180948 -2.631983 0.181878 5.862490 -2.630976 0.197776 13.343172 4.469460 0.428653 0.554220 -14.333608 3.559431 -146.567964 -80.949981 -35.431893 8.390798 60.756192 21.634406 -28.870209 -13.555259 1.141715 10.107678 -3.658564 28.299063 160.406419 88.112077 -17.947944 -4.562148 -53.861666 -24.959736 -53.909437 6.869902 -1.332628 4.012221 5.117596 -36.638634 
-48.446977 0.000000 325.749827 0.000000 103.417066 0.000000 1.890596 89.129570 -0.558815 97.539826 -3.194870 176.365170 178.328958 -3.139394 179.148076 -24.223102 -5.668878 -4.177902 82.916509 2.275614 -3.512460 21.454557 0.003105 0.000017 164.612176 13.036003 -178.476477 -59.552201 0.315061 -2.165146 68.160097 4.412379 7.777312 21.454553 -0.003089 -0.000001 8.137341 -1.391457 0.119571 6.261664 -2.787237 0.164021 5.943168 -2.786334 0.180846 12.948673 4.001051 0.826985 0.503985 -14.328647 3.961528 -147.677200 -80.826259 -34.312292 3.948883 61.023123 19.831582 -32.118189 -13.787888 1.220685 9.199834 -5.206544 25.614722 144.395854 87.705435 -34.021241 -7.177311 -55.546633 -23.895540 -51.216901 7.684561 -1.299599 4.047033 4.145869 -38.641044 
-49.047027 0.000000 324.615662 0.000000 102.993943 0.000000 1.750774 89.181732 -0.546479 97.707445 -3.169945 176.229414 -179.469040 -2.877188 -179.464190 -21.698743 -6.281685 -5.373370 82.744859 3.104866 -3.513644 21.454557 0.003122 0.000018 160.093118 13.923711 -178.024646 -65.856486 0.433747 -1.790679 65.967087 3.380440 5.377275 21.454551 -0.003095 -0.000002 8.252923 -1.427667 -0.006876 6.496149 -2.852618 -0.093652 6.177626 -2.853267 -0.076406 12.507701 3.987340 1.168845 0.266934 -14.511054 4.394873 -150.160398 -81.018543 -31.790183 -0.429895 60.482391 17.281610 -35.857052 -13.801615 1.304481 8.245298 -3.762238 21.909524 139.352675 87.324167 -39.103052 -9.287129 -57.353665 -22.694992 -49.631488 8.553028 -1.307931 3.453255 2.563415 -43.460193 
-49.579069 0.000000 323.408681 0.000000 102.458916 0.000000 1.615449 89.212097 -0.484032 97.848948 -2.947348 176.805243 -177.345124 -3.016702 -178.105625 -19.235237 -6.770897 -6.220054 82.472417 3.706117 -3.430390 21.454562 0.003109 0.000016 156.860690 14.494602 -177.402921 -69.194072 1.086306 -0.672667 68.758196 2.572759 5.913309 21.454560 -0.003093 -0.000004 8.395625 -1.399453 -0.171307 6.785557 -2.786400 -0.424276 6.467060 -2.789059 -0.407422 12.243564 4.215960 1.349839 -0.053133 -14.780237 4.702950 -154.957581 -81.540328 -26.917106 -4.319904 59.602498 14.146895 -40.023669 -13.750956 1.404740 7.139833 -0.878023 19.443725 148.253409 87.036213 -30.194381 -10.679454 -59.040982 -21.558213 -49.094153 9.575222 -1.359822 2.505474 1.051792 -50.509905 
-50.053143 0.000000 322.136172 0.000000 101.821662 0.000000 1.448643 89.315247 -0.434117 97.768947 -2.383480 177.718270 -175.603071 -3.584498 -177.608373 -17.201056 -6.874760 -6.461360 82.364486 3.896178 -3.323576 21.454558 0.003104 0.000017 154.677434 14.445205 -176.357602 -69.612892 2.030568 0.916671 71.227788 1.153906 5.667478 21.454557 -0.003099 0.000000 8.502538 -1.258826 -0.340943 7.002143 -2.494711 -0.757396 6.683746 -2.499367 -0.742319 12.183034 4.431344 1.511473 -0.277054 -15.033176 4.968766 -160.136025 -82.131741 -21.663490 -7.358900 59.004201 10.978106 -44.588254 -13.783662 1.533233 6.049690 1.687262 19.294933 161.071761 86.725173 -17.342340 -11.285224 -60.798642 -20.132488 -49.126303 10.469690 -1.420692 1.466383 0.166626 -57.740630 
